PathFileType	4	(X/Y/Z)	./resultDataOpenSim/trcMotMarkerGrf/sub06/qtm-15-08.trc
DataRate	CameraRate	NumFrames	NumMarkers	Units	OrigDataRate	OrigDataStartFrame	OrigNumFrames
250.000000	250.000000	7	24	m	250.000000	244	487
Frame#	Time	L.Toe.Tip			R.Toe.Tip			L.Ankle.Lat			R.Ankle.Lat			L.Ankle.Med			R.Ankle.Med			L.Heel			R.Heel			L.Knee.Lat			R.Knee.Lat			L.Knee.Med			R.Knee.Med			L.Thigh.Upper			R.Thigh.Upper			L.ASIS			R.ASIS			V.Sacral			L.Acromium			R.Acromium			C7			L.Elbow			R.Elbow			L.Wrist.Lat			R.Wrist.Lat
		X1	Y1	Z1	X2	Y2	Z2	X3	Y3	Z3	X4	Y4	Z4	X5	Y5	Z5	X6	Y6	Z6	X7	Y7	Z7	X8	Y8	Z8	X9	Y9	Z9	X10	Y10	Z10	X11	Y11	Z11	X12	Y12	Z12	X13	Y13	Z13	X14	Y14	Z14	X15	Y15	Z15	X16	Y16	Z16	X17	Y17	Z17	X18	Y18	Z18	X19	Y19	Z19	X20	Y20	Z20	X21	Y21	Z21	X22	Y22	Z22	X23	Y23	Z23	X24	Y24	Z24

244	0.972	0.081321092	-0.064690082	-0.047864687	0.68902752	0.14912054	0.084102618	-0.022350323	-0.0035752511	-0.10255832	0.5542887	0.15146485	0.10722392	-0.032690445	0.019835123	-0.019812052	0.56941212	0.17714108	0.020012396	-0.10609503	-0.0095315973	-0.071403498	0.50368597	0.11832937	0.047494327	0.10723599	0.35021618	-0.12154781	0.52957183	0.53859842	0.12107335	0.081489308	0.35496013	-0.0025867116	0.51019135	0.51797322	0.00074826667	0.18328459	0.72411354	-0.19642281	0.24045857	0.7613095	0.15373653	0.27160039	0.76770854	-0.16330678	0.30959015	0.7970321	0.074275832	0.1118081	0.86456269	-0.018161633	0.33081038	1.2557438	-0.20292495	0.27795719	1.2467641	0.15019201	0.23767414	1.2950569	-0.039306396	0.36823198	0.94340559	-0.30155339	0.065395544	1.0282874	0.21762295	0.60774191	0.86957277	-0.29648144	0.042885351	0.81107641	0.31730987
245	0.976	0.081433074	-0.064716643	-0.047826494	0.70798487	0.15113701	0.081948393	-0.021557787	-0.0024535465	-0.10247999	0.57292271	0.1513956	0.1052581	-0.031170506	0.020837274	-0.019638399	0.58751992	0.17744834	0.017898831	-0.10525196	-0.0076264005	-0.070721857	0.5229523	0.11746877	0.045143934	0.11041155	0.35056912	-0.12145768	0.53713109	0.53803589	0.11927896	0.085561968	0.35521502	-0.0027329486	0.51787861	0.51695807	-0.00068231442	0.18861526	0.7232172	-0.19635565	0.24863576	0.76084632	0.15360169	0.27733518	0.7666573	-0.16414469	0.31753217	0.79637772	0.073995225	0.11884732	0.86392707	-0.017684659	0.33885297	1.2552146	-0.2025479	0.28599802	1.2453692	0.15055672	0.24575751	1.2944758	-0.038895915	0.37881244	0.94325461	-0.30127701	0.071879859	1.0288645	0.21709873	0.61973677	0.87372783	-0.29386111	0.045045845	0.81293841	0.31808967
246	0.98	0.081539455	-0.064741184	-0.047768033	0.72632294	0.15320889	0.079627649	-0.020715293	-0.0013175597	-0.10237269	0.59095931	0.15139593	0.10326447	-0.029745052	0.021916004	-0.019411354	0.60503456	0.1778186	0.015709686	-0.10425475	-0.0057028848	-0.070193111	0.54160449	0.11671987	0.042741686	0.11387112	0.35080518	-0.12131417	0.54479832	0.53724905	0.11760729	0.089598806	0.35544434	-0.0025656781	0.5254368	0.51569228	-0.0020800514	0.19403643	0.72230014	-0.19626031	0.25676684	0.76029648	0.15348687	0.28315811	0.76564608	-0.16492944	0.32548369	0.79571556	0.073774726	0.12591221	0.86329416	-0.01727264	0.34691706	1.2546741	-0.20217202	0.29404843	1.2439298	0.1509264	0.25384136	1.2938717	-0.038479347	0.38939889	0.94311539	-0.30099759	0.078397124	1.0293659	0.21654788	0.63157525	0.87785175	-0.29121978	0.047455268	0.81479145	0.31882029
247	0.984	0.081643863	-0.064761583	-0.047690185	0.74393849	0.15531064	0.077100209	-0.019822665	-0.00016700394	-0.10224364	0.60839142	0.15136555	0.10113508	-0.028347919	0.023044542	-0.019158182	0.62189693	0.17821685	0.01344848	-0.10314013	-0.0037509674	-0.069759476	0.55958573	0.11602883	0.040295816	0.11764482	0.35091343	-0.1211467	0.55254101	0.53622058	0.11603786	0.093533987	0.35557832	-0.0019586586	0.53289067	0.51419084	-0.0034452413	0.19954973	0.72136589	-0.19612256	0.26492699	0.75968487	0.15342725	0.28906113	0.76467515	-0.16566482	0.33351867	0.79507661	0.073638258	0.13299222	0.86267145	-0.01693071	0.35500082	1.254128	-0.20179475	0.30211174	1.2424502	0.15131263	0.26193518	1.2932459	-0.038040899	0.40000283	0.94299758	-0.30075986	0.084933984	1.029765	0.21596843	0.64326401	0.88192111	-0.28855649	0.050052503	0.81661463	0.31951679
248	0.988	0.081757392	-0.064774512	-0.047591546	0.76077572	0.15740941	0.074345277	-0.018875181	0.00099720846	-0.10212186	0.62519163	0.15125545	0.098811148	-0.026928526	0.024186877	-0.018906382	0.63803453	0.17860074	0.011099994	-0.10194164	-0.0017611061	-0.069369093	0.57685123	0.11534139	0.03779789	0.12168795	0.35091437	-0.12095772	0.56030552	0.53493638	0.11452483	0.097543091	0.3556656	-0.001166481	0.54027343	0.51246285	-0.0047828047	0.20515471	0.7204118	-0.19593118	0.27321383	0.75903321	0.15346753	0.29504672	0.76374253	-0.16634892	0.34172419	0.79448977	0.073616809	0.14009355	0.86203668	-0.016625713	0.36310907	1.2535808	-0.20141032	0.31018553	1.2409352	0.1517186	0.27005359	1.292599	-0.037568847	0.41059371	0.94287049	-0.30055374	0.09151521	1.0300679	0.21536634	0.65480646	0.8859198	-0.2858686	0.052819444	0.81839031	0.3201815
249	0.992	0.081895975	-0.064772938	-0.047464015	0.77682712	0.15946302	0.07138814	-0.017862569	0.0021788155	-0.10202718	0.64129639	0.15107092	0.09631567	-0.025479317	0.025317643	-0.018678752	0.65338474	0.17893132	0.008646687	-0.1006749	0.0002763757	-0.069008461	0.5933656	0.11462271	0.035232241	0.12593808	0.35082599	-0.12073854	0.56809118	0.53341539	0.11305085	0.1018484	0.35581452	-0.00055614336	0.54761417	0.51052545	-0.0060933802	0.21084657	0.71943858	-0.19569251	0.28167231	0.75834416	0.15362064	0.30111817	0.76284609	-0.16697158	0.35006902	0.79395125	0.073677046	0.14723761	0.86135253	-0.016299549	0.37124318	1.2530374	-0.20101452	0.31827056	1.2393899	0.15213863	0.2782037	1.2919318	-0.03706397	0.4211391	0.94270632	-0.30036438	0.098173208	1.0302991	0.21475167	0.66619795	0.88983724	-0.28316031	0.055747706	0.82010534	0.32080689
250	0.996	0.082067822	-0.064749625	-0.047300022	0.79209313	0.16140111	0.068299413	-0.016767239	0.003380934	-0.10194447	0.65663624	0.15081282	0.093695143	-0.024006951	0.026428543	-0.01849407	0.66793832	0.17917174	0.0060910681	-0.099347286	0.0023760951	-0.068683039	0.60909706	0.11386012	0.032584785	0.13036622	0.35065269	-0.12049617	0.57591334	0.53168504	0.11161126	0.10649259	0.35603178	-0.00020558408	0.5549312	0.50841057	-0.0073793789	0.21661847	0.71844877	-0.1954173	0.29022479	0.75760379	0.1538257	0.30724697	0.76198884	-0.16751503	0.35835888	0.79341392	0.073696236	0.15445568	0.86058611	-0.015897092	0.37939964	1.2525044	-0.20060423	0.32637289	1.2378197	0.15256953	0.2863817	1.291245	-0.036531321	0.43163812	0.94251736	-0.30017686	0.1049118	1.0304708	0.21413288	0.67742923	0.89366739	-0.28044057	0.058789094	0.8217521	0.32138667
